<svg id="visual" viewBox="0 0 960 540" width="960" height="540" xmlns="http://www.w3.org/2000/svg" xmlns:xlink="http://www.w3.org/1999/xlink" version="1.1"><rect x="0" y="0" width="960" height="540" fill="#001220"></rect><path d="M0 302L22.8 301.7C45.7 301.3 91.3 300.7 137 295.3C182.7 290 228.3 280 274 291C319.7 302 365.3 334 411.2 350.7C457 367.3 503 368.7 548.8 355.3C594.7 342 640.3 314 686 301.3C731.7 288.7 777.3 291.3 823 305.7C868.7 320 914.3 346 937.2 359L960 372L960 541L937.2 541C914.3 541 868.7 541 823 541C777.3 541 731.7 541 686 541C640.3 541 594.7 541 548.8 541C503 541 457 541 411.2 541C365.3 541 319.7 541 274 541C228.3 541 182.7 541 137 541C91.3 541 45.7 541 22.8 541L0 541Z" fill="#69fad2"></path><path d="M0 323L22.8 337.2C45.7 351.3 91.3 379.7 137 390.8C182.7 402 228.3 396 274 387.3C319.7 378.7 365.3 367.3 411.2 358C457 348.7 503 341.3 548.8 339.8C594.7 338.3 640.3 342.7 686 354.5C731.7 366.3 777.3 385.7 823 381C868.7 376.3 914.3 347.7 937.2 333.3L960 319L960 541L937.2 541C914.3 541 868.7 541 823 541C777.3 541 731.7 541 686 541C640.3 541 594.7 541 548.8 541C503 541 457 541 411.2 541C365.3 541 319.7 541 274 541C228.3 541 182.7 541 137 541C91.3 541 45.7 541 22.8 541L0 541Z" fill="#09c1c4"></path><path d="M0 367L22.8 372.3C45.7 377.7 91.3 388.3 137 396.8C182.7 405.3 228.3 411.7 274 413C319.7 414.3 365.3 410.7 411.2 408.8C457 407 503 407 548.8 410.8C594.7 414.7 640.3 422.3 686 422C731.7 421.7 777.3 413.3 823 413.7C868.7 414 914.3 423 937.2 427.5L960 432L960 541L937.2 541C914.3 541 868.7 541 823 541C777.3 541 731.7 541 686 541C640.3 541 594.7 541 548.8 541C503 541 457 541 411.2 541C365.3 541 319.7 541 274 541C228.3 541 182.7 541 137 541C91.3 541 45.7 541 22.8 541L0 541Z" fill="#0089a3"></path><path d="M0 435L22.8 436.5C45.7 438 91.3 441 137 446.3C182.7 451.7 228.3 459.3 274 459.3C319.7 459.3 365.3 451.7 411.2 448.5C457 445.3 503 446.7 548.8 442.3C594.7 438 640.3 428 686 429C731.7 430 777.3 442 823 449.8C868.7 457.7 914.3 461.3 937.2 463.2L960 465L960 541L937.2 541C914.3 541 868.7 541 823 541C777.3 541 731.7 541 686 541C640.3 541 594.7 541 548.8 541C503 541 457 541 411.2 541C365.3 541 319.7 541 274 541C228.3 541 182.7 541 137 541C91.3 541 45.7 541 22.8 541L0 541Z" fill="#075474"></path><path d="M0 509L22.8 506.2C45.7 503.3 91.3 497.7 137 494.7C182.7 491.7 228.3 491.3 274 494.5C319.7 497.7 365.3 504.3 411.2 506.3C457 508.3 503 505.7 548.8 505C594.7 504.3 640.3 505.7 686 502.5C731.7 499.3 777.3 491.7 823 484.8C868.7 478 914.3 472 937.2 469L960 466L960 541L937.2 541C914.3 541 868.7 541 823 541C777.3 541 731.7 541 686 541C640.3 541 594.7 541 548.8 541C503 541 457 541 411.2 541C365.3 541 319.7 541 274 541C228.3 541 182.7 541 137 541C91.3 541 45.7 541 22.8 541L0 541Z" fill="#0a243f"></path></svg>