<svg id="visual" viewBox="0 0 900 600" width="900" height="600" xmlns="http://www.w3.org/2000/svg" xmlns:xlink="http://www.w3.org/1999/xlink" version="1.1"><rect x="0" y="0" width="900" height="600" fill="#ffffff"></rect><path d="M0 363L129 363L257 377L386 431L514 370L643 409L771 416L900 405L900 601L771 601L643 601L514 601L386 601L257 601L129 601L0 601Z" fill="#0af558"></path><path d="M0 453L129 435L257 424L386 439L514 442L643 404L771 399L900 469L900 601L771 601L643 601L514 601L386 601L257 601L129 601L0 601Z" fill="#00d6a8"></path><path d="M0 504L129 473L257 468L386 451L514 437L643 441L771 446L900 439L900 601L771 601L643 601L514 601L386 601L257 601L129 601L0 601Z" fill="#00afb7"></path><path d="M0 494L129 524L257 537L386 498L514 523L643 539L771 502L900 498L900 601L771 601L643 601L514 601L386 601L257 601L129 601L0 601Z" fill="#0086a5"></path><path d="M0 540L129 556L257 538L386 562L514 535L643 543L771 530L900 530L900 601L771 601L643 601L514 601L386 601L257 601L129 601L0 601Z" fill="#005e87"></path></svg>